<svg id="Ebene_1" data-name="Ebene 1" xmlns="http://www.w3.org/2000/svg" xmlns:xlink="http://www.w3.org/1999/xlink" viewBox="0 0 360 490"><defs><style>.cls-1,.cls-4,.cls-7{fill:none;}.cls-2{fill:#0e7958;}.cls-3{clip-path:url(#clip-path);}.cls-4,.cls-5,.cls-7{stroke:#f6f6f6;stroke-linecap:round;stroke-linejoin:round;}.cls-4,.cls-5{stroke-width:19.84px;}.cls-5,.cls-6{fill:#f6f6f6;}.cls-7{stroke-width:9.92px;}</style><clipPath id="clip-path" transform="translate(0 0)"><path class="cls-1" d="M17.48,85.57C-55.52,219.1,120,490,180,490S415.52,219.1,342.52,85.57C280.16-28.52,79.84-28.52,17.48,85.57Z"/></clipPath></defs><path class="cls-2" d="M17.48,85.57C-55.52,219.1,120,490,180,490S415.52,219.1,342.52,85.57C280.16-28.52,79.84-28.52,17.48,85.57Z" transform="translate(0 0)"/><g class="cls-3"><polyline class="cls-4" points="234.52 283.31 229.16 243.87 184.72 218.43 192.94 148.8 177.88 145.99 163.9 268.22 142.47 310.58"/><rect class="cls-5" x="114.57" y="154.93" width="52.98" height="13.67" transform="translate(-33.54 286.57) rotate(-84.47)"/><polyline class="cls-4" points="192.94 148.8 210.53 184.95 227.22 199.56"/><circle class="cls-6" cx="189.43" cy="113.65" r="17.5"/><polyline class="cls-7" points="46.4 348.07 142.47 341.25 162.92 329.08 198.97 301.33 241.83 314.47 276.41 301.33 337.83 294.76"/></g></svg>