<svg id="Ebene_1" data-name="Ebene 1" xmlns="http://www.w3.org/2000/svg" xmlns:xlink="http://www.w3.org/1999/xlink" viewBox="0 0 369.49 490"><defs><style>.cls-1,.cls-4,.cls-7,.cls-8{fill:none;}.cls-2{fill:#106a4e;}.cls-3{clip-path:url(#clip-path);}.cls-4,.cls-5,.cls-7,.cls-8{stroke:#f6f6f6;stroke-linecap:round;stroke-linejoin:round;}.cls-4,.cls-5{stroke-width:19.84px;}.cls-5,.cls-6{fill:#f6f6f6;}.cls-7{stroke-width:19.81px;}.cls-8{stroke-width:9.92px;}</style><clipPath id="clip-path" transform="translate(0 0)"><path class="cls-1" d="M17.48,85.57C-55.52,219.1,120,490,180,490S415.52,219.1,342.52,85.57C280.16-28.52,79.84-28.52,17.48,85.57Z"/></clipPath></defs><path class="cls-2" d="M17.48,85.57C-55.52,219.1,120,490,180,490S415.52,219.1,342.52,85.57C280.16-28.52,79.84-28.52,17.48,85.57Z" transform="translate(0 0)"/><g class="cls-3"><polyline class="cls-4" points="131.12 318.05 150.51 276.61 153.66 219.48 173.63 143.41 188.4 147.2 170.35 222.22 217.17 229.35 220.08 273.94"/><rect class="cls-5" x="98.39" y="153.18" width="67.78" height="13.6" transform="translate(-56.33 246.68) rotate(-75.1)"/><polyline class="cls-4" points="188.4 147.2 217.17 168.29 255.95 169.26"/><circle class="cls-6" cx="190.98" cy="111.3" r="17.5"/><line class="cls-7" x1="217.14" y1="229.37" x2="153.68" y2="219.91"/><polyline class="cls-8" points="58.4 365.54 126.03 340.1 159.48 348.82 171.84 312.47 184.93 293.57 220.56 301.57 247.47 327.74 264.92 288.48 301.28 254.31 364.53 237.7"/><path class="cls-8" d="M237.29,199.32s14.05-3.48,25.46-3.48c12.89,0,27.26,3.48,27.26,3.48" transform="translate(0 0)"/><line class="cls-8" x1="263.1" y1="187.07" x2="263.1" y2="265.95"/><polyline class="cls-8" points="161.42 217.72 106.64 270.55 65.91 285.57 12.25 318.29"/></g></svg>