<svg id="Ebene_1" data-name="Ebene 1" xmlns="http://www.w3.org/2000/svg" xmlns:xlink="http://www.w3.org/1999/xlink" viewBox="0 0 360 490"><defs><style>.cls-1,.cls-4,.cls-6{fill:none;}.cls-2{fill:#09986c;}.cls-3{clip-path:url(#clip-path);}.cls-4,.cls-6{stroke:#f6f6f6;stroke-linecap:round;stroke-linejoin:round;}.cls-4{stroke-width:19.84px;}.cls-5{fill:#f6f6f6;}.cls-6{stroke-width:9.92px;}</style><clipPath id="clip-path" transform="translate(0 0)"><path class="cls-1" d="M17.48,85.57C-55.52,219.1,120,490,180,490S415.52,219.1,342.52,85.57C280.16-28.52,79.84-28.52,17.48,85.57Z"/></clipPath></defs><path class="cls-2" d="M17.48,85.57C-55.52,219.1,120,490,180,490S415.52,219.1,342.52,85.57C280.16-28.52,79.84-28.52,17.48,85.57Z" transform="translate(0 0)"/><g class="cls-3"><polyline class="cls-4" points="112.5 294.36 156.24 268.32 175.38 215.74 178.19 144.01 192.04 144.56 190.3 214.66 225.66 251.36 245.31 293.91"/><circle class="cls-5" cx="188.24" cy="111" r="17.5"/><polyline class="cls-4" points="131.92 202.65 146.02 168.69 178.19 144.01 192.04 144.56 215.4 168.7 246.66 157.26"/><polyline class="cls-6" points="329.05 327.05 230.74 330.19 196.83 315.5 132.03 331.33 31.68 325.42"/></g></svg>