<?xml version="1.0" encoding="utf-8"?>
<!-- Generator: Adobe Illustrator 25.2.1, SVG Export Plug-In . SVG Version: 6.00 Build 0)  -->
<svg version="1.1" id="Ebene_1" xmlns="http://www.w3.org/2000/svg" xmlns:xlink="http://www.w3.org/1999/xlink" x="0px" y="0px"
	 viewBox="0 0 360 490" style="enable-background:new 0 0 360 490;" xml:space="preserve">
<style type="text/css">
	.st0{fill:#254B68;}
	.st1{fill:none;stroke:#F6F6F6;stroke-width:19.8425;stroke-linecap:round;stroke-linejoin:round;}
	.st2{fill:#F6F6F6;}
	.st3{fill:none;stroke:#F6F6F6;stroke-width:9.9213;stroke-linecap:round;stroke-linejoin:round;}
</style>
<path class="st0" d="M17.48,85.57C-55.53,219.1,120,490,180,490S415.53,219.1,342.52,85.57C280.16-28.52,79.84-28.52,17.48,85.57z"
	/>
<polyline class="st1" points="141.51,276.78 156.22,251.73 137.16,210.35 170.31,143.11 183.08,149.4 154.4,209.08 200.51,228.68 
	200.33,270.79 "/>
<ellipse class="st2" cx="196.21" cy="111.7" rx="17.5" ry="17.5"/>
<polyline class="st1" points="104.66,168.43 127.53,147.01 170.31,143.11 183.08,149.4 208.09,181.72 240.91,187.03 "/>
<line class="st3" x1="89.77" y1="275.15" x2="188.9" y2="327.42"/>
<line class="st3" x1="163.3" y1="291.48" x2="275.49" y2="295.84"/>
<line class="st3" x1="104.66" y1="168.43" x2="52.73" y2="136.85"/>
<line class="st3" x1="262.97" y1="266.98" x2="240.91" y2="187.03"/>
</svg>
