<?xml version="1.0" encoding="utf-8"?>
<!-- Generator: Adobe Illustrator 25.2.1, SVG Export Plug-In . SVG Version: 6.00 Build 0)  -->
<svg version="1.1" id="Ebene_1" xmlns="http://www.w3.org/2000/svg" xmlns:xlink="http://www.w3.org/1999/xlink" x="0px" y="0px"
	 viewBox="0 0 360 490" style="enable-background:new 0 0 360 490;" xml:space="preserve">
<style type="text/css">
	.st0{fill:#426784;}
	.st1{fill:none;stroke:#F6F6F6;stroke-width:9.9213;stroke-linecap:round;stroke-linejoin:round;}
	.st2{fill:none;stroke:#F6F6F6;stroke-width:19.8425;stroke-linecap:round;stroke-linejoin:round;}
	.st3{fill:#F6F6F6;}
</style>
<path class="st0" d="M17.48,85.57C-55.53,219.1,120,490,180,490S415.53,219.1,342.52,85.57C280.16-28.52,79.84-28.52,17.48,85.57z"
	/>
<line class="st1" x1="174.84" y1="304.09" x2="291.94" y2="304.22"/>
<polyline class="st2" points="88.48,235.76 139.97,226.69 177.51,183.17 206.35,115.32 219.45,120.89 192.24,187.56 212.81,235.68 
	216.18,283.7 "/>
<ellipse class="st3" cx="228.03" cy="87.27" rx="17.5" ry="17.5"/>
<polyline class="st2" points="140.54,154.77 166.47,127.29 206.35,115.32 219.45,120.89 233.08,152.57 267.27,152.98 "/>
<line class="st1" x1="140.54" y1="154.77" x2="59.74" y2="147.07"/>
<line class="st1" x1="267.27" y1="152.98" x2="251.46" y2="263.96"/>
<line class="st1" x1="43.04" y1="216.22" x2="121.47" y2="307.7"/>
</svg>
