<?xml version="1.0" encoding="utf-8"?>
<!-- Generator: Adobe Illustrator 25.2.1, SVG Export Plug-In . SVG Version: 6.00 Build 0)  -->
<svg version="1.1" id="Ebene_1" xmlns="http://www.w3.org/2000/svg" xmlns:xlink="http://www.w3.org/1999/xlink" x="0px" y="0px"
	 viewBox="0 0 360 490" style="enable-background:new 0 0 360 490;" xml:space="preserve">
<style type="text/css">
	.st0{fill:#6B889E;}
	.st1{fill:none;stroke:#F6F6F6;stroke-width:19.8425;stroke-linecap:round;stroke-linejoin:round;}
	.st2{fill:#F6F6F6;}
	.st3{fill:none;stroke:#F6F6F6;stroke-width:9.9213;stroke-linecap:round;stroke-linejoin:round;}
</style>
<path class="st0" d="M17.48,85.57C-55.53,219.1,120,490,180,490S415.53,219.1,342.52,85.57C280.16-28.52,79.84-28.52,17.48,85.57z"
	/>
<polyline class="st1" points="182.27,290.3 183,256.36 157.13,218.52 155.29,143.75 169.63,143.28 171.01,214.98 208.32,242.48 
	226.75,291.03 "/>
<ellipse class="st2" cx="163.2" cy="108.91" rx="17.5" ry="17.5"/>
<polyline class="st1" points="114.64,181.77 126.35,157.54 155.29,143.75 169.63,143.28 225.84,195.92 "/>
<path class="st3" d="M110.56,213.89l156.86,84.4c0,0-37,37.75-87.69,10.89c-24.45-12.95-94.23-54.45-94.23-54.45"/>
<line class="st3" x1="132.43" y1="225.71" x2="105.67" y2="266.53"/>
<line class="st3" x1="267.42" y1="298.29" x2="225.84" y2="195.92"/>
</svg>
