<?xml version="1.0" encoding="utf-8"?>
<!-- Generator: Adobe Illustrator 25.2.1, SVG Export Plug-In . SVG Version: 6.00 Build 0)  -->
<svg version="1.1" id="Ebene_1" xmlns="http://www.w3.org/2000/svg" xmlns:xlink="http://www.w3.org/1999/xlink" x="0px" y="0px"
	 viewBox="0 0 360 490" style="enable-background:new 0 0 360 490;" xml:space="preserve">
<style type="text/css">
	.st0{fill:#50728C;}
	.st1{fill:none;stroke:#F6F6F6;stroke-width:19.8425;stroke-linecap:round;stroke-linejoin:round;}
	.st2{fill:#F6F6F6;}
	.st3{fill:none;stroke:#F6F6F6;stroke-width:9.9213;stroke-linecap:round;stroke-linejoin:round;}
</style>
<path class="st0" d="M17.48,85.57C-55.53,219.1,120,490,180,490S415.53,219.1,342.52,85.57C280.16-28.52,79.84-28.52,17.48,85.57z"
	/>
<polyline class="st1" points="141.67,294.94 173.89,252.47 187.44,128.49 201.6,129.95 195.26,201.71 230.48,229.13 230.84,269.06 
	"/>
<ellipse class="st2" cx="198.81" cy="93.48" rx="17.5" ry="17.5"/>
<polyline class="st1" points="141.81,187.65 156.38,155.13 187.44,128.49 201.6,129.95 231.21,164.16 270.42,182.31 "/>
<line class="st3" x1="204.48" y1="297.57" x2="258.52" y2="287.31"/>
<line class="st3" x1="104.13" y1="308.38" x2="156.4" y2="322.7"/>
<line class="st3" x1="264.98" y1="262.17" x2="270.42" y2="182.31"/>
<line class="st3" x1="141.82" y1="187.65" x2="86.33" y2="267.61"/>
</svg>
