<?xml version="1.0" encoding="utf-8"?>
<!-- Generator: Adobe Illustrator 25.2.1, SVG Export Plug-In . SVG Version: 6.00 Build 0)  -->
<svg version="1.1" id="Ebene_1" xmlns="http://www.w3.org/2000/svg" xmlns:xlink="http://www.w3.org/1999/xlink" x="0px" y="0px"
	 viewBox="0 0 360 490" style="enable-background:new 0 0 360 490;" xml:space="preserve">
<style type="text/css">
	.st0{fill:#345C7B;}
	.st1{fill:none;stroke:#F6F6F6;stroke-width:19.8425;stroke-linecap:round;stroke-linejoin:round;stroke-miterlimit:10;}
	.st2{fill:#F6F6F6;}
	.st3{fill:none;stroke:#F6F6F6;stroke-width:9.9213;stroke-linecap:round;stroke-linejoin:round;stroke-miterlimit:10;}
</style>
<path class="st0" d="M17.48,85.57C-55.52,219.1,119.97,490,180,490S415.52,219.1,342.52,85.57C280.16-28.52,79.84-28.52,17.48,85.57
	z"/>
<polyline class="st1" points="143.09,272.09 162.7,240.51 193.36,130.99 207.13,134.6 189.89,204.54 211.17,223.63 205.73,268.82 
	"/>
<ellipse class="st2" cx="210.73" cy="100.08" rx="17.5" ry="17.5"/>
<polyline class="st1" points="139.23,182.49 158.59,152.58 193.36,130.99 207.13,134.6 231.16,172.92 267.14,196.85 "/>
<line class="st3" x1="247.12" y1="281.07" x2="267.14" y2="196.85"/>
<line class="st3" x1="139.23" y1="182.49" x2="64.12" y2="237.78"/>
<line class="st3" x1="86.65" y1="263.88" x2="200.55" y2="327.9"/>
<line class="st3" x1="169.35" y1="275.82" x2="271.36" y2="319.46"/>
</svg>
