<?xml version="1.0" encoding="utf-8"?>
<!-- Generator: Adobe Illustrator 25.2.1, SVG Export Plug-In . SVG Version: 6.00 Build 0)  -->
<svg version="1.1" id="Ebene_1" xmlns="http://www.w3.org/2000/svg" xmlns:xlink="http://www.w3.org/1999/xlink" x="0px" y="0px"
	 viewBox="0 0 360 490" style="enable-background:new 0 0 360 490;" xml:space="preserve">
<style type="text/css">
	.st0{fill:#265172;}
	.st1{fill:none;stroke:#F6F6F6;stroke-width:19.8425;stroke-linecap:round;stroke-linejoin:round;}
	.st2{fill:#F6F6F6;stroke:#F6F6F6;stroke-width:19.8425;stroke-linecap:round;stroke-linejoin:round;stroke-miterlimit:4;}
	.st3{fill:#F6F6F6;}
	.st4{fill:none;stroke:#F6F6F6;stroke-width:9.9213;stroke-linecap:round;stroke-linejoin:round;}
</style>
<path class="st0" d="M17.48,85.57C-55.53,219.1,120,490,180,490S415.53,219.1,342.52,85.57C280.16-28.52,79.84-28.52,17.48,85.57z"
	/>
<polyline class="st1" points="213,249.81 221.17,204.07 183.75,202.69 197.85,130.47 182.31,126.34 158.03,253.16 132.25,295.8 "/>
<rect x="114.73" y="132.76" transform="matrix(0.1709 -0.9853 0.9853 0.1709 -19.7079 256.4521)" class="st2" width="55.6" height="14.35"/>
<ellipse class="st3" cx="197.73" cy="93.41" rx="17.5" ry="17.5"/>
<polyline class="st1" points="259.84,137.64 226.07,150.17 197.85,130.47 "/>
<line class="st4" x1="254.94" y1="237.28" x2="259.84" y2="137.64"/>
<line class="st4" x1="165.62" y1="291.73" x2="309.41" y2="235.65"/>
<line class="st4" x1="79.28" y1="333.33" x2="228" y2="292.05"/>
</svg>
