<svg id="Ebene_1" data-name="Ebene 1" xmlns="http://www.w3.org/2000/svg" xmlns:xlink="http://www.w3.org/1999/xlink" viewBox="0 0 360.14 490"><defs><style>.cls-1,.cls-3,.cls-5,.cls-7{fill:none;}.cls-2{fill:#738e54;}.cls-3,.cls-5,.cls-7{stroke:#f6f6f6;}.cls-3,.cls-7{stroke-linecap:round;stroke-linejoin:round;}.cls-3{stroke-width:19.84px;}.cls-4{fill:#f6f6f6;}.cls-5{stroke-miterlimit:10;}.cls-5,.cls-7{stroke-width:9.92px;}.cls-6{clip-path:url(#clip-path);}</style><clipPath id="clip-path" transform="translate(0.14 0)"><path class="cls-1" d="M17.48,85.57C-55.52,219.1,120,490,180,490S415.52,219.1,342.52,85.57C280.16-28.52,79.84-28.52,17.48,85.57Z"/></clipPath></defs><path class="cls-2" d="M17.48,85.57C-55.52,219.1,120,490,180,490S415.52,219.1,342.52,85.57C280.16-28.52,79.84-28.52,17.48,85.57Z" transform="translate(0.14 0)"/><polyline class="cls-3" points="160.19 173.91 152.62 162.52 207.78 122.04 217.5 132.2 160.19 173.91 184.71 210.76 165.75 264.28"/><circle class="cls-4" cx="238.66" cy="101.66" r="17.5"/><polyline class="cls-3" points="207.78 122.04 217.47 132.19 227.05 172.52 248.89 195.2"/><ellipse class="cls-5" cx="111.44" cy="221.41" rx="40.92" ry="41.01"/><ellipse class="cls-5" cx="234.71" cy="265.25" rx="40.92" ry="41.01"/><g class="cls-6"><polyline class="cls-7" points="4.96 253 67.31 273.03 116.03 301.1 153.49 297.54 211.25 333.37 317.87 349.92"/></g></svg>