<svg id="Ebene_1" data-name="Ebene 1" xmlns="http://www.w3.org/2000/svg" xmlns:xlink="http://www.w3.org/1999/xlink" viewBox="0 0 360.01 490"><defs><style>.cls-1,.cls-3,.cls-5,.cls-7{fill:none;}.cls-2{fill:#81a15d;}.cls-3,.cls-5,.cls-7{stroke:#f6f6f6;}.cls-3,.cls-7{stroke-linecap:round;stroke-linejoin:round;}.cls-3{stroke-width:19.84px;}.cls-4{fill:#f6f6f6;}.cls-5{stroke-miterlimit:10;}.cls-5,.cls-7{stroke-width:9.92px;}.cls-6{clip-path:url(#clip-path);}</style><clipPath id="clip-path" transform="translate(0 0)"><path class="cls-1" d="M17.44,85.57C-55.41,219.1,119.74,490,179.65,490S414.72,219.1,341.86,85.57C279.62-28.52,79.69-28.52,17.44,85.57Z"/></clipPath></defs><path class="cls-2" d="M17.44,85.57C-55.41,219.1,119.74,490,179.65,490S414.72,219.1,341.86,85.57C279.62-28.52,79.69-28.52,17.44,85.57Z" transform="translate(0 0)"/><polyline class="cls-3" points="193.13 262.75 174.65 209.39 119.79 191.91 137.56 126.11 151.4 127.95 133.98 191.97"/><circle class="cls-4" cx="148.97" cy="91.09" r="17.5"/><polyline class="cls-3" points="137.55 126.11 151.38 127.97 183.84 153.32 214.88 157.33"/><ellipse class="cls-5" cx="124.32" cy="263.28" rx="40.73" ry="40.79"/><ellipse class="cls-5" cx="247.31" cy="220.57" rx="40.73" ry="40.79"/><g class="cls-6"><polyline class="cls-7" points="50.64 361.9 122.04 330.85 177.31 322.31 204.22 296.22 271.34 288.08 355.05 241.02"/></g></svg>