<svg id="Ebene_1" data-name="Ebene 1" xmlns="http://www.w3.org/2000/svg" viewBox="0 0 360 490"><defs><style>.cls-1{fill:#90b467;}.cls-2,.cls-4{fill:none;stroke:#f6f6f6;}.cls-2{stroke-linecap:round;stroke-linejoin:round;stroke-width:19.84px;}.cls-3{fill:#f6f6f6;}.cls-4{stroke-miterlimit:10;stroke-width:9.92px;}</style></defs><path class="cls-1" d="M17.48,85.57C-55.52,219.1,120,490,180,490S415.52,219.1,342.52,85.57C280.16-28.52,79.84-28.52,17.48,85.57Z" transform="translate(0 0)"/><path class="cls-2" d="M143.56,179.77,205.87,147l-6.65-12.29L141,166.17a6.6,6.6,0,0,0-1.52,10.49l37.39,37.28.25,50.08" transform="translate(0 0)"/><circle class="cls-3" cx="232.44" cy="121.21" r="17.5"/><polyline class="cls-2" points="199.23 134.76 205.82 146.98 216.85 181.49 252.02 180.75"/><ellipse class="cls-4" cx="111.91" cy="246.26" rx="40.54" ry="40.52"/><ellipse class="cls-4" cx="241.47" cy="246.26" rx="40.54" ry="40.52"/></svg>