<svg id="Ebene_1" data-name="Ebene 1" xmlns="http://www.w3.org/2000/svg" viewBox="0 0 360 490"><defs><style>.cls-1{fill:#ab9a45;}.cls-2,.cls-4{fill:none;stroke:#f6f6f6;stroke-linecap:round;stroke-linejoin:round;}.cls-2{stroke-width:19.84px;}.cls-3{fill:#f6f6f6;}.cls-4{stroke-width:9.92px;}</style></defs><path class="cls-1" d="M17.48,85.57C-55.52,219.1,120,490,180,490S415.52,219.1,342.52,85.57C280.16-28.52,79.84-28.52,17.48,85.57Z" transform="translate(0 0)"/><polyline class="cls-2" points="210.23 309.08 177 269.34 123.63 263.89 107.79 183.2 122.73 182 136.37 248.16 165.57 229.05 214.04 242.66"/><polyline class="cls-2" points="122.73 182 154.98 181.31 174.83 158.26"/><circle class="cls-3" cx="114.3" cy="146.44" r="17.5" transform="translate(-70.07 123.71) rotate(-45)"/><polyline class="cls-4" points="178.64 70.06 181.36 128.86 227.62 201.69 219.54 245.78 236.62 278.59 250.29 338.81"/><path class="cls-4" d="M175.37,159c-5.08,80.58-45,98.1-45,98.1l-.76,90.65" transform="translate(0 0)"/></svg>