<svg id="Ebene_1" data-name="Ebene 1" xmlns="http://www.w3.org/2000/svg" viewBox="0 0 360 490"><defs><style>.cls-1{fill:#dac352;}.cls-2,.cls-4{fill:none;stroke:#f6f6f6;stroke-linecap:round;stroke-linejoin:round;}.cls-2{stroke-width:19.84px;}.cls-3{fill:#f6f6f6;}.cls-4{stroke-width:9.92px;}</style></defs><path class="cls-1" d="M17.48,85.57C-55.52,219.1,120,490,180,490S415.52,219.1,342.52,85.57C280.16-28.52,79.84-28.52,17.48,85.57Z" transform="translate(0 0)"/><polyline class="cls-2" points="134.88 331.68 156.13 289.21 165.9 238.29 167.5 161.67 182.29 161.99 181.81 236.84 230.2 223.87 253.62 262.53"/><circle class="cls-3" cx="173.76" cy="125.15" r="17.5"/><polyline class="cls-2" points="102.21 138.39 132.71 168.34 167.5 161.67 188.44 161.98 223.12 142.2 247.08 107.35"/><path class="cls-4" d="M247.08,107.35s2,34.4-11.44,61.89C220,201.19,176.1,232.77,176.1,232.77L183,363.08" transform="translate(0 0)"/></svg>