<svg id="Ebene_1" data-name="Ebene 1" xmlns="http://www.w3.org/2000/svg" viewBox="0 0 360 490"><defs><style>.cls-1{fill:#bba749;}.cls-2,.cls-4{fill:none;stroke:#f6f6f6;stroke-linecap:round;stroke-linejoin:round;}.cls-2{stroke-width:19.84px;}.cls-3{fill:#f6f6f6;}.cls-4{stroke-width:9.92px;}</style></defs><path class="cls-1" d="M17.48,85.57C-55.52,219.1,120,490,180,490S415.52,219.1,342.52,85.57C280.16-28.52,79.84-28.52,17.48,85.57Z" transform="translate(0 0)"/><polyline class="cls-2" points="191.15 332.28 156.02 277.56 112.28 235.76 136.11 161.88 150.41 166.4 127.7 231.83 175.63 215.49 198.23 245.44"/><polyline class="cls-2" points="150.41 166.4 180.53 177.92 225.47 155.87"/><circle class="cls-3" cx="156.01" cy="130.29" r="17.5"/><polyline class="cls-4" points="242.62 101.15 200.14 243.81 187.07 368.49"/><line class="cls-4" x1="241.39" y1="210.02" x2="213.01" y2="200.6"/><line class="cls-4" x1="261.12" y1="137.77" x2="234.12" y2="129.68"/><line class="cls-4" x1="226.66" y1="284.18" x2="196.24" y2="281.01"/><line class="cls-4" x1="225.13" y1="347" x2="189.5" y2="345.26"/></svg>